<svg width="64" height="64" viewBox="0 0 64 64" xmlns="http://www.w3.org/2000/svg">
  <defs>
    <linearGradient id="bg" x1="0%" y1="0%" x2="100%" y2="100%">
      <stop offset="0%" stop-color="#0f172a"/>
      <stop offset="100%" stop-color="#1e293b"/>
    </linearGradient>
    <linearGradient id="accent" x1="0%" y1="0%" x2="100%" y2="0%">
      <stop offset="0%" stop-color="#38bdf8"/>
      <stop offset="100%" stop-color="#818cf8"/>
    </linearGradient>
  </defs>
  <rect width="64" height="64" rx="14" fill="url(#bg)"/>
  <g transform="translate(9,22)">
    <path d="M0 11 C1 8,4 6,8 6 L11 2 C13 1,16 0,19 0 L29 0
             C32 0,35 1,37 3 L40 6 C44 6,47 8,48 11 L48 14
             C48 15,47 16,46 16 L43 16 C43 13,41 11,38 11
             C35 11,33 13,33 16 L15 16 C15 13,13 11,10 11
             C7 11,5 13,5 16 L2 16 C1 16,0 15,0 14 Z" fill="url(#accent)"/>
    <circle cx="10.5" cy="16" r="3.6" fill="#0f172a" stroke="url(#accent)" stroke-width="1.6"/>
    <circle cx="38" cy="16" r="3.6" fill="#0f172a" stroke="url(#accent)" stroke-width="1.6"/>
    <path d="M12.5 5.5 L16 2.2 C17.2 1.2,18.7 0.7,20.2 0.7 L28 0.7
             C30.2 0.7,32.3 1.5,34 3 L37 5.5 Z" fill="#0f172a" opacity="0.35"/>
  </g>
</svg>