
<svg width="1200" height="630" viewBox="0 0 1200 630" xmlns="http://www.w3.org/2000/svg">
  <defs>
    <linearGradient id="bg" x1="0%" y1="0%" x2="100%" y2="100%">
      <stop offset="0%" stop-color="#0f172a"/>
      <stop offset="100%" stop-color="#1e293b"/>
    </linearGradient>
    <linearGradient id="accent" x1="0%" y1="0%" x2="100%" y2="0%">
      <stop offset="0%" stop-color="#38bdf8"/>
      <stop offset="100%" stop-color="#818cf8"/>
    </linearGradient>
  </defs>
  <rect width="1200" height="630" fill="url(#bg)"/>
  <circle cx="1080" cy="80" r="220" fill="#38bdf8" opacity="0.08"/>
  <circle cx="60" cy="560" r="180" fill="#818cf8" opacity="0.08"/>
  <rect x="0" y="470" width="1200" height="6" fill="url(#accent)" opacity="0.5"/>
  <g transform="translate(430,230)">
    <path d="M0 90 C6 65,28 48,62 45 L90 20 C104 8,124 2,148 2 L234 2
             C260 2,286 10,304 28 L324 45 C358 48,380 65,386 90 L386 114
             C386 122,380 129,372 129 L344 129 C344 108,328 92,308 92
             C288 92,272 108,272 129 L122 129 C122 108,106 92,86 92
             C66 92,50 108,50 129 L16 129 C8 129,0 122,0 114 Z" fill="url(#accent)"/>
    <circle cx="86" cy="129" r="30" fill="#0f172a" stroke="url(#accent)" stroke-width="8"/>
    <circle cx="308" cy="129" r="30" fill="#0f172a" stroke="url(#accent)" stroke-width="8"/>
    <path d="M100 44 L128 18 C138 10,150 6,162 6 L226 6
             C244 6,262 12,274 24 L300 44 Z" fill="#0f172a" opacity="0.35"/>
  </g>
  <text x="600" y="500" font-family="Arial, sans-serif" font-size="72" font-weight="700"
        text-anchor="middle" fill="#f8fafc">MyCar.ge</text>
  <text x="600" y="550" font-family="Arial, sans-serif" font-size="28" font-weight="400"
        text-anchor="middle" fill="#94a3b8">მანქანების ყიდვა-გაყიდვა საქართველოში</text>
</svg>
